<svg xmlns="http://www.w3.org/2000/svg"  viewBox="0 0 24 24" width="50px" height="50px"><path d="M 14.650391 2.0058594 C 14.145841 2.0058594 13.641227 2.1947106 13.261719 2.5742188 L 2.5761719 13.263672 C 1.8171557 14.022688 1.8171557 15.281999 2.5761719 16.041016 L 7.9609375 21.425781 C 8.3881278 21.852971 8.9733064 22.030236 9.5390625 21.976562 L 9.5390625 22 L 22 22 L 22 20 L 12.164062 20 L 21.423828 10.736328 C 22.182844 9.9773121 22.182844 8.7180005 21.423828 7.9589844 L 16.039062 2.5742188 C 15.659554 2.1947106 15.15494 2.0058594 14.650391 2.0058594 z M 14.650391 4.0136719 L 19.984375 9.3496094 L 15.361328 13.972656 L 10.027344 8.6386719 L 14.650391 4.0136719 z M 8.6132812 10.052734 L 13.947266 15.386719 L 9.3496094 19.986328 L 4.015625 14.650391 L 8.6132812 10.052734 z"/></svg>