<svg xmlns="http://www.w3.org/2000/svg"  viewBox="0 0 24 24" width="50px" height="50px"><path d="M 6.109375 4 C 5.4242102 4 4.7749125 4.3597569 4.4121094 4.9394531 L 0 12 L 4.4140625 19.060547 C 4.7768656 19.640243 5.4242386 20 6.109375 20 L 21 20 C 22.094255 20 23 19.094255 23 18 L 23 6 C 23 4.9057453 22.094255 4 21 4 L 6.109375 4 z M 6.1074219 6 L 6.109375 6 L 21 6 L 21 18 L 6.109375 18 L 2.3574219 12 L 6.1074219 6 z M 9.7070312 7.2929688 L 8.2929688 8.7070312 L 11.585938 12 L 8.2929688 15.292969 L 9.7070312 16.707031 L 13 13.414062 L 16.292969 16.707031 L 17.707031 15.292969 L 14.414062 12 L 17.707031 8.7070312 L 16.292969 7.2929688 L 13 10.585938 L 9.7070312 7.2929688 z"/></svg>